<svg id="logo" data-name="logo" xmlns="http://www.w3.org/2000/svg" viewBox="0 0 33.73 33.21"><defs><style>.cls-1{fill:none;stroke:#000;stroke-linecap:round;stroke-miterlimit:10;stroke-width:0.5px;}</style></defs><path class="cls-1" d="M9.41,167.47s2.89-14.22,16.16-14.22,16.17,14.22,16.17,14.22" transform="translate(-8.26 -147.79)"/><path class="cls-1" d="M9.41,169.87c2,0,2,2,4,2s2-2,4-2,2,2,4,2,2-2,4-2,2,2,4,2,2-2,4-2,2,2,4,2,2-2,4.05-2" transform="translate(-8.26 -147.79)"/><text x="-8.26" y="-147.79"/><path class="cls-1" d="M16.42,173.11s0,6.06-5.57,7.64" transform="translate(-8.26 -147.79)"/><path class="cls-1" d="M34.72,173.11s0,6.06,5.58,7.64" transform="translate(-8.26 -147.79)"/><path class="cls-1" d="M22.35,173.11a16.6,16.6,0,0,1-1.52,7.42" transform="translate(-8.26 -147.79)"/><path class="cls-1" d="M28.8,173.11a16.52,16.52,0,0,0,1.51,7.42" transform="translate(-8.26 -147.79)"/></svg>